<svg xmlns="http://www.w3.org/2000/svg" viewBox="0 0 326.93 54.68"><title>Ресурс 1</title><g id="Слой_2" data-name="Слой 2"><g id="Layer_1" data-name="Layer 1"><path d="M120.54,26.87l-.27-3.07h-4.49l-1.38,3.07h-2.23l6.64-14.54h2.59l1.34,14.54Zm-3.81-5.15h3.35l-.37-4.12-.08-2.53-1,2.53Z"/><path d="M134.89,22.51A4.71,4.71,0,0,1,130,27.08c-2.35,0-4-1.34-4-3.75a12.61,12.61,0,0,1,.19-1.87l.76-4.33a7.78,7.78,0,0,1,.91-2.76,4.58,4.58,0,0,1,4.1-2.24c2.74,0,4.32,1.85,4,4.57h-2.26c.16-1.32-.29-2.6-1.94-2.6a2,2,0,0,0-1.91,1.07,5.61,5.61,0,0,0-.62,1.94l-.81,4.57a8.62,8.62,0,0,0-.14,1.32c0,1.13.49,2.1,1.94,2.1s2.2-1.11,2.47-2.59Z"/><path d="M147,22.51A4.71,4.71,0,0,1,142,27.08c-2.35,0-4-1.34-4-3.75a12.61,12.61,0,0,1,.19-1.87l.76-4.33a7.78,7.78,0,0,1,.91-2.76,4.58,4.58,0,0,1,4.1-2.24c2.74,0,4.32,1.85,4,4.57h-2.26c.16-1.32-.29-2.6-1.94-2.6a2.05,2.05,0,0,0-1.91,1.07,5.61,5.61,0,0,0-.62,1.94l-.8,4.57a7.62,7.62,0,0,0-.15,1.32c0,1.13.5,2.1,1.94,2.1s2.2-1.11,2.47-2.59Z"/><path d="M149.58,26.87l2.56-14.54h7.76l-.37,2.08H154l-.66,3.77h4.47l-.37,2.08H153l-.8,4.53h5.56l-.35,2.08Z"/><path d="M160.75,26.87l2.55-14.54h2.27l-2.21,12.46h5.15l-.35,2.08Z"/><path d="M171.31,26.87l2.56-14.54h7.76l-.37,2.08h-5.5l-.66,3.77h4.47l-.37,2.08h-4.47l-.8,4.53h5.56l-.35,2.08Z"/><path d="M182.48,26.87,185,12.33h3.09a7.24,7.24,0,0,1,3.15.48A3.28,3.28,0,0,1,193.13,16a4.37,4.37,0,0,1-3.2,4.18l2,6.71h-2.41l-1.87-6.38h-1.79l-1.12,6.38Zm4.59-8.36a6.27,6.27,0,0,0,2.25-.29,2.16,2.16,0,0,0,1.5-2,1.67,1.67,0,0,0-.87-1.54,4.73,4.73,0,0,0-2.14-.33H187l-.74,4.2Z"/><path d="M202.13,26.87l-.27-3.07h-4.49L196,26.87h-2.22l6.63-14.54H203l1.34,14.54Zm-3.81-5.15h3.35l-.37-4.12-.08-2.53-1,2.53Z"/><path d="M208,26.87l2.18-12.46h-3.27l.37-2.08h8.86l-.38,2.08h-3.31l-2.19,12.46Z"/><path d="M216.38,26.87l2.56-14.54h2.26l-2.55,14.54Z"/><path d="M232.57,22.1a7.61,7.61,0,0,1-.9,2.76,4.82,4.82,0,0,1-4.27,2.22c-2.41,0-4.08-1.34-4.08-3.75a12.61,12.61,0,0,1,.19-1.87l.76-4.33a7.78,7.78,0,0,1,.91-2.76,4.76,4.76,0,0,1,4.26-2.24c2.43,0,4.08,1.36,4.08,3.79a11.2,11.2,0,0,1-.19,1.83Zm-1.46-4.68a8.88,8.88,0,0,0,.14-1.32,1.79,1.79,0,0,0-2-2,2.15,2.15,0,0,0-2,1.07,5.61,5.61,0,0,0-.62,1.94l-.81,4.57a8.62,8.62,0,0,0-.14,1.32,1.84,1.84,0,0,0,2,2.1,2.22,2.22,0,0,0,2.08-1.17,5.52,5.52,0,0,0,.62-1.92Z"/><path d="M243.1,26.87l-3-9.57-.41-1.51-.21,1.75-1.65,9.33H235.7l2.58-14.54h2.61l2.68,8.43.41,1.52.23-1.75,1.44-8.2h2.08l-2.57,14.54Z"/><path d="M117.28,43.88c-.29,2.58-2,4.78-4.76,4.78a3.66,3.66,0,0,1-4-3.73,13.82,13.82,0,0,1,.27-2.28l.59-3.38a10.21,10.21,0,0,1,1-3.26,4.79,4.79,0,0,1,4.16-2.3c2.66,0,4.18,2.1,3.69,4.77H117c.31-1.91-.49-3.66-2.63-3.66a3.29,3.29,0,0,0-2.91,1.67,8.71,8.71,0,0,0-.84,2.74L110,42.75a14.2,14.2,0,0,0-.22,2.06,2.54,2.54,0,0,0,2.73,2.74c2.13,0,3.24-1.73,3.55-3.67Z"/><path d="M127.17,44.48a6,6,0,0,1-.72,2.18,3.92,3.92,0,0,1-3.44,1.9,3,3,0,0,1-3.17-3.13,8.14,8.14,0,0,1,.14-1.34l.5-2.83a5.84,5.84,0,0,1,.72-2.18,3.92,3.92,0,0,1,3.44-1.89,3,3,0,0,1,3.17,3.13,7.42,7.42,0,0,1-.15,1.34Zm-.7-2.82a9,9,0,0,0,.14-1.28,2,2,0,0,0-2.12-2.1,2.43,2.43,0,0,0-2.24,1.32,5.51,5.51,0,0,0-.62,1.91l-.45,2.58a7.21,7.21,0,0,0-.15,1.29,1.94,1.94,0,0,0,2.1,2.08,2.53,2.53,0,0,0,2.27-1.29,5.77,5.77,0,0,0,.62-1.92Z"/><path d="M142,48.45l1.18-6.71a10.32,10.32,0,0,0,.16-1.53,1.8,1.8,0,0,0-2-1.93A2.58,2.58,0,0,0,139,39.62a5.91,5.91,0,0,0-.57,1.81l-1.24,7H136l1.17-6.71a10.32,10.32,0,0,0,.16-1.53,1.79,1.79,0,0,0-2-1.93,2.57,2.57,0,0,0-2.37,1.34,5.61,5.61,0,0,0-.58,1.81l-1.24,7h-1.19l2-11.16h1.19l-.25,1.4a3.4,3.4,0,0,1,2.91-1.5,2.56,2.56,0,0,1,2.7,2,3.6,3.6,0,0,1,3.29-2,2.65,2.65,0,0,1,2.87,2.86,10.17,10.17,0,0,1-.17,1.59l-1.19,6.81Z"/><path d="M159,48.45l1.17-6.71a10.32,10.32,0,0,0,.16-1.53,1.79,1.79,0,0,0-2-1.93A2.57,2.57,0,0,0,156,39.62a5.61,5.61,0,0,0-.58,1.81l-1.24,7H153l1.17-6.71a9.3,9.3,0,0,0,.17-1.53,1.8,1.8,0,0,0-2-1.93,2.58,2.58,0,0,0-2.37,1.34,6.16,6.16,0,0,0-.58,1.81l-1.23,7h-1.2l2-11.16h1.2l-.25,1.4a3.37,3.37,0,0,1,2.9-1.5,2.55,2.55,0,0,1,2.7,2,3.63,3.63,0,0,1,3.3-2,2.64,2.64,0,0,1,2.86,2.86,9.09,9.09,0,0,1-.17,1.59l-1.19,6.81Z"/><path d="M169.73,48.45l.24-1.4a3.36,3.36,0,0,1-2.88,1.51,2.62,2.62,0,0,1-2.76-2.89,9.59,9.59,0,0,1,.16-1.56l1.2-6.82h1.19L165.71,44a10.32,10.32,0,0,0-.16,1.53,1.78,1.78,0,0,0,2,1.93,2.57,2.57,0,0,0,2.35-1.33,5.86,5.86,0,0,0,.58-1.82l1.23-7h1.2l-2,11.16Z"/><path d="M180.85,48.45,182,41.74a9.3,9.3,0,0,0,.17-1.53,1.8,1.8,0,0,0-2-1.93,2.58,2.58,0,0,0-2.37,1.34,6.16,6.16,0,0,0-.58,1.81l-1.23,7h-1.2l2-11.16H178l-.25,1.4a3.37,3.37,0,0,1,2.9-1.5,2.62,2.62,0,0,1,2.8,2.88,9.81,9.81,0,0,1-.16,1.57L182,48.45Z"/><path d="M185.73,48.45l2-11.16h1.19l-1.95,11.16ZM188,35l.24-1.48h1.45L189.42,35Z"/><path d="M194.75,48.56c-1.46,0-3-.56-3-2.31a9.67,9.67,0,0,1,.16-1.46l1.09-6.2h-1.34l.19-1.09h1.34l.47-2.66h1.2l-.48,2.66h2.35l-.19,1.09h-2.34l-1.1,6.16a6.59,6.59,0,0,0-.12,1.11c0,1.15.62,1.56,2,1.56Z"/><path d="M197.33,51c1.09,0,2-1.09,2.55-2.54h-.43L198.3,37.29h1.21l.78,7.62.19,2.35,1-2.37,3.44-7.6h1.28l-5.28,11.62a6.71,6.71,0,0,1-1.46,2.14,3.42,3.42,0,0,1-2.33,1.05l-.33,0Z"/><path d="M219.12,44.48a6,6,0,0,1-.72,2.18,3.92,3.92,0,0,1-3.44,1.9,3,3,0,0,1-3.17-3.13,8.14,8.14,0,0,1,.14-1.34l.5-2.83a6,6,0,0,1,.72-2.18,3.94,3.94,0,0,1,3.44-1.89,3,3,0,0,1,3.17,3.13,8.37,8.37,0,0,1-.14,1.34Zm-.7-2.82a9.19,9.19,0,0,0,.15-1.28,2,2,0,0,0-2.13-2.1,2.43,2.43,0,0,0-2.24,1.32,5.51,5.51,0,0,0-.62,1.91l-.45,2.58a7.21,7.21,0,0,0-.15,1.29,1.94,1.94,0,0,0,2.1,2.08,2.53,2.53,0,0,0,2.27-1.29,5.77,5.77,0,0,0,.62-1.92Z"/><path d="M222.4,48.45l1.73-9.86h-1.34L223,37.5h1.34a8.16,8.16,0,0,1,.52-2,3.8,3.8,0,0,1,3.75-2.08l-.19,1.13a2.4,2.4,0,0,0-2.45,1.3,8,8,0,0,0-.43,1.65h2.35l-.19,1.09h-2.35l-1.73,9.86Z"/><path d="M242.58,43.88c-.29,2.58-2,4.78-4.75,4.78a3.66,3.66,0,0,1-4-3.73,13.82,13.82,0,0,1,.27-2.28l.59-3.38a10.21,10.21,0,0,1,1-3.26,4.79,4.79,0,0,1,4.16-2.3c2.66,0,4.18,2.1,3.69,4.77h-1.19c.3-1.91-.5-3.66-2.64-3.66a3.26,3.26,0,0,0-2.9,1.67,8.4,8.4,0,0,0-.85,2.74l-.62,3.52a14.2,14.2,0,0,0-.22,2.06,2.54,2.54,0,0,0,2.74,2.74c2.12,0,3.23-1.73,3.54-3.67Z"/><path d="M252.47,44.48a6,6,0,0,1-.72,2.18,3.92,3.92,0,0,1-3.44,1.9,3,3,0,0,1-3.17-3.13,8.14,8.14,0,0,1,.14-1.34l.5-2.83a6,6,0,0,1,.72-2.18,3.94,3.94,0,0,1,3.44-1.89,3,3,0,0,1,3.17,3.13,7.42,7.42,0,0,1-.15,1.34Zm-.7-2.82a9,9,0,0,0,.14-1.28,2,2,0,0,0-2.12-2.1,2.43,2.43,0,0,0-2.24,1.32,5.51,5.51,0,0,0-.62,1.91l-.45,2.58a7.21,7.21,0,0,0-.15,1.29,1.94,1.94,0,0,0,2.1,2.08,2.53,2.53,0,0,0,2.27-1.29,5.77,5.77,0,0,0,.62-1.92Z"/><path d="M267.34,48.45l1.18-6.71a10.32,10.32,0,0,0,.16-1.53,1.79,1.79,0,0,0-2-1.93,2.58,2.58,0,0,0-2.37,1.34,5.91,5.91,0,0,0-.57,1.81l-1.24,7h-1.19l1.17-6.71a10.55,10.55,0,0,0,.17-1.53,1.8,1.8,0,0,0-2-1.93,2.57,2.57,0,0,0-2.37,1.34,5.87,5.87,0,0,0-.58,1.81l-1.23,7h-1.2l2-11.16h1.19l-.24,1.4a3.37,3.37,0,0,1,2.9-1.5,2.56,2.56,0,0,1,2.7,2,3.6,3.6,0,0,1,3.29-2,2.65,2.65,0,0,1,2.87,2.86,10.17,10.17,0,0,1-.17,1.59l-1.19,6.81Z"/><path d="M271.57,52.1l2.61-14.81h1.2l-.25,1.4a3.38,3.38,0,0,1,2.9-1.5,2.62,2.62,0,0,1,2.8,2.88,9.81,9.81,0,0,1-.16,1.57l-.49,2.82a7.2,7.2,0,0,1-.75,2.28,3.58,3.58,0,0,1-3.19,1.82A2.55,2.55,0,0,1,273.67,47l-.91,5.13Zm7.88-10.36a9.3,9.3,0,0,0,.17-1.53,1.8,1.8,0,0,0-2-1.93,2.58,2.58,0,0,0-2.37,1.34,5.91,5.91,0,0,0-.57,1.81l-.48,2.64a7.11,7.11,0,0,0-.14,1.27,1.92,1.92,0,0,0,2.12,2.12,2.44,2.44,0,0,0,2.27-1.31,5.86,5.86,0,0,0,.57-1.84Z"/><path d="M288.81,48.45l.24-1.36a3.57,3.57,0,0,1-2.88,1.47,2.71,2.71,0,0,1-2.8-3,10.21,10.21,0,0,1,.14-1.48l.5-2.84a6.66,6.66,0,0,1,.76-2.33A3.54,3.54,0,0,1,288,37.19a2.49,2.49,0,0,1,2.56,1.62l.26-1.52H292l-2,11.16ZM290,41.72a8.38,8.38,0,0,0,.12-1.38,1.81,1.81,0,0,0-2-2.06,2.47,2.47,0,0,0-2.33,1.32,5.72,5.72,0,0,0-.58,1.83l-.47,2.64a8.73,8.73,0,0,0-.13,1.34,1.8,1.8,0,0,0,2.06,2.05A2.4,2.4,0,0,0,289,46.15a6.09,6.09,0,0,0,.58-1.86Z"/><path d="M300,48.45l1.17-6.71a9.3,9.3,0,0,0,.17-1.53,1.8,1.8,0,0,0-2-1.93,2.58,2.58,0,0,0-2.37,1.34,5.91,5.91,0,0,0-.57,1.81l-1.24,7h-1.2l2-11.16h1.2l-.25,1.4a3.38,3.38,0,0,1,2.9-1.5,2.62,2.62,0,0,1,2.8,2.88,9.81,9.81,0,0,1-.16,1.57l-1.19,6.81Z"/><path d="M304.83,48.45l2-11.16H308l-2,11.16ZM307.08,35l.24-1.48h1.45L308.52,35Z"/><path d="M311.69,42.67,311.47,44a8.59,8.59,0,0,0-.17,1.4,1.92,1.92,0,0,0,2.06,2.08,2.89,2.89,0,0,0,2.84-2.69h1.16a4.14,4.14,0,0,1-4.08,3.79,3,3,0,0,1-3.17-3.2,8.17,8.17,0,0,1,.14-1.27l.49-2.83a6,6,0,0,1,.73-2.18,3.92,3.92,0,0,1,3.44-1.89,3,3,0,0,1,3.17,3.13,7.63,7.63,0,0,1-.15,1.36l-.16,1Zm.19-1.1h4.88a7.43,7.43,0,0,0,.12-1.19,2,2,0,0,0-2.12-2.1,2.43,2.43,0,0,0-2.24,1.32,5.51,5.51,0,0,0-.62,1.91Z"/><path d="M325.74,40.11a1.47,1.47,0,0,0-1.61-1.83,1.89,1.89,0,0,0-2.06,1.77c0,2.33,4.56,1.83,4.56,4.94a3.82,3.82,0,0,1-4.06,3.57,2.92,2.92,0,0,1-3.13-3.67h1.15a2,2,0,0,0,2,2.57,2.53,2.53,0,0,0,2.76-2.26c0-2.37-4.55-1.81-4.55-4.88a3.2,3.2,0,0,1,3.38-3.13,2.43,2.43,0,0,1,2.67,2.92Z"/><path d="M18.12,44.35l-.24-6.28h-8L7.43,44.35H0L14.67,10.51h8.67L26,44.35Zm-6-12h5.56l-.29-7.62.14-7.14-2.39,7.14Z"/><path d="M55.12,32.85c-.58,6.51-4.36,12-12.27,12-5.85,0-10.31-3-10.31-9.25a28.8,28.8,0,0,1,.48-4.7l1.49-8.48c.67-3.84,1.48-5.75,2.3-7C38.87,11.9,42.51,10,47.16,10c7.33,0,10.93,4.65,9.88,11.84H49.32c.29-2.35.38-5.46-2.64-5.46a3.36,3.36,0,0,0-3.26,2.11,16.29,16.29,0,0,0-1.15,4.26l-1.53,8.68A20.82,20.82,0,0,0,40.36,35c0,2.16.76,3.5,2.82,3.5,2.83,0,3.74-2.73,4.27-5.6Z"/><path d="M84.07,32.85c-.58,6.51-4.36,12-12.27,12-5.85,0-10.31-3-10.31-9.25a28.8,28.8,0,0,1,.48-4.7l1.49-8.48c.67-3.84,1.48-5.75,2.3-7C67.82,11.9,71.46,10,76.11,10,83.44,10,87,14.68,86,21.87H78.27c.29-2.35.38-5.46-2.64-5.46a3.36,3.36,0,0,0-3.26,2.11,16.29,16.29,0,0,0-1.15,4.26l-1.53,8.68A20.82,20.82,0,0,0,69.31,35c0,2.16.76,3.5,2.82,3.5,2.83,0,3.74-2.73,4.27-5.6Z"/><path d="M87.23,54.68a.39.39,0,0,1-.18,0,.44.44,0,0,1-.24-.59L109.75.27a.45.45,0,0,1,.6-.23.44.44,0,0,1,.24.59L87.65,54.41A.47.47,0,0,1,87.23,54.68Z"/></g></g></svg>