<svg id="Layer_1" data-name="Layer 1" xmlns="http://www.w3.org/2000/svg" viewBox="0 0 141.4 62.1"><defs><style>.cls-1{fill:#231f20;}</style></defs><title>OPENINGS AND INTERNSHIPS-01</title><path class="cls-1" d="M5.3,19.1A7.6,7.6,0,1,1,13,26.8,7.6,7.6,0,0,1,5.3,19.1Zm12.4,0A4.7,4.7,0,0,0,13,14.3a4.7,4.7,0,0,0-4.7,4.8A4.7,4.7,0,0,0,13,23.9,4.7,4.7,0,0,0,17.7,19.1Z"/><path class="cls-1" d="M33.3,21.2a5.3,5.3,0,0,1-5.1,5.5,4.1,4.1,0,0,1-3.4-1.5v5.4H22.1V16h2.7v1.2a4.1,4.1,0,0,1,3.4-1.5A5.3,5.3,0,0,1,33.3,21.2Zm-2.7,0a2.9,2.9,0,1,0-5.8,0,2.9,2.9,0,1,0,5.8,0Z"/><path class="cls-1" d="M40.1,24.3a2.9,2.9,0,0,0,2.4-1l2.2,1.3A5.3,5.3,0,0,1,40,26.8a5.4,5.4,0,0,1-5.8-5.5,5.4,5.4,0,1,1,10.9,0,6.3,6.3,0,0,1-.1,1.1H37.1A2.8,2.8,0,0,0,40.1,24.3Zm2.4-4.1a2.5,2.5,0,0,0-2.6-2.1,2.6,2.6,0,0,0-2.8,2.1Z"/><path class="cls-1" d="M56.4,20v6.4H53.7V20.4a2,2,0,0,0-2.1-2.2c-1.3,0-2.3.8-2.3,2.6v5.7H46.6V16h2.7v1.2a3.6,3.6,0,0,1,3.1-1.5C54.7,15.7,56.4,17.2,56.4,20Z"/><path class="cls-1" d="M58,13a1.7,1.7,0,1,1,1.7,1.7A1.7,1.7,0,0,1,58,13Zm.3,2.9H61V26.5H58.3Z"/><path class="cls-1" d="M72.9,20v6.4H70.2V20.4a2,2,0,0,0-2.1-2.2c-1.3,0-2.3.8-2.3,2.6v5.7H63.1V16h2.7v1.2a3.6,3.6,0,0,1,3.1-1.5C71.1,15.7,72.9,17.2,72.9,20Z"/><path class="cls-1" d="M85.5,16V26c0,3.4-2.7,5-5.5,5a5.3,5.3,0,0,1-5-2.6l2.3-1.3a2.7,2.7,0,0,0,2.8,1.5A2.4,2.4,0,0,0,82.8,26V24.8a4,4,0,0,1-3.4,1.6A5.2,5.2,0,0,1,74.2,21a5.3,5.3,0,0,1,5.2-5.4,4,4,0,0,1,3.4,1.6V16ZM82.8,21a2.9,2.9,0,1,0-2.9,2.9A2.8,2.8,0,0,0,82.8,21Z"/><path class="cls-1" d="M95.3,23.4c0,2.3-2,3.4-4.2,3.4a4.5,4.5,0,0,1-4.4-2.5L89,22.9a2,2,0,0,0,2.1,1.4c.9,0,1.4-.3,1.4-.9s-5.4-.7-5.4-4.4c0-2.1,1.8-3.3,4-3.3a4.4,4.4,0,0,1,4,2.2l-2.3,1.3a1.8,1.8,0,0,0-1.7-1.1c-.7,0-1.2.3-1.2.9S95.3,19.5,95.3,23.4Z"/><path class="cls-1" d="M111.7,26.9l-1.3-1.4a6.5,6.5,0,0,1-3.9,1.3c-3,0-5.1-1.7-5.1-4.4a4.8,4.8,0,0,1,2.5-4.2,4.5,4.5,0,0,1-.7-2.5,4.3,4.3,0,0,1,4.6-4.2,4.9,4.9,0,0,1,4.7,3.1L109.8,16a2.3,2.3,0,0,0-2.2-1.8,1.6,1.6,0,0,0-1.7,1.6,3.3,3.3,0,0,0,1.2,2.2l3.1,3.4a10.4,10.4,0,0,0,.7-2.4l2.4,1.4a10.4,10.4,0,0,1-1.3,3.1l1.9,2.1Zm-3.1-3.4-3.2-3.4h0a2.3,2.3,0,0,0-1.2,2c0,1.2.8,2,2.4,2A3.7,3.7,0,0,0,108.6,23.6Z"/><path class="cls-1" d="M38.7,35V49.7H35.8V35Z"/><path class="cls-1" d="M50.7,43.2v6.4H48V43.6a2,2,0,0,0-2.1-2.2c-1.3,0-2.3.8-2.3,2.6v5.7H40.9V39.2h2.7v1.2a3.6,3.6,0,0,1,3.1-1.5C49,38.9,50.7,40.4,50.7,43.2Z"/><path class="cls-1" d="M56.2,41.8v4.4c0,1.1.8,1.2,2.4,1.1v2.5c-3.8.4-5.1-.7-5.1-3.5V41.8H51.7V39.2h1.8V37l2.7-.8v2.9h2.4v2.6Z"/><path class="cls-1" d="M65,47.5a2.9,2.9,0,0,0,2.4-1.1l2.2,1.3A5.3,5.3,0,0,1,65,50a5.5,5.5,0,1,1-.2-11.1,5.3,5.3,0,0,1,5.3,5.5,6.2,6.2,0,0,1-.1,1.1H62.1A2.8,2.8,0,0,0,65,47.5Zm2.4-4.1a2.5,2.5,0,0,0-2.6-2.1A2.6,2.6,0,0,0,62,43.4Z"/><path class="cls-1" d="M77.5,39v3a2.6,2.6,0,0,0-3.2,2.7v5H71.6V39.2h2.7V41A3.2,3.2,0,0,1,77.5,39Z"/><path class="cls-1" d="M88.4,43.2v6.4H85.7V43.6a2,2,0,0,0-2.1-2.2c-1.3,0-2.3.8-2.3,2.6v5.7H78.6V39.2h2.7v1.2a3.6,3.6,0,0,1,3.1-1.5C86.7,38.9,88.4,40.4,88.4,43.2Z"/><path class="cls-1" d="M98.2,46.6c0,2.3-2,3.4-4.2,3.4a4.5,4.5,0,0,1-4.4-2.5L92,46.1A2,2,0,0,0,94,47.5c.9,0,1.4-.3,1.4-.9s-5.4-.7-5.4-4.4c0-2.1,1.8-3.3,4-3.3a4.4,4.4,0,0,1,4,2.2l-2.3,1.3A1.8,1.8,0,0,0,94,41.3c-.7,0-1.2.3-1.2.9S98.2,42.7,98.2,46.6Z"/><path class="cls-1" d="M109.4,43.2v6.4h-2.7V43.6a2,2,0,0,0-2.1-2.2c-1.3,0-2.3.8-2.3,2.6v5.7H99.6V35h2.7v5.4a3.6,3.6,0,0,1,3.1-1.5C107.6,38.9,109.4,40.4,109.4,43.2Z"/><path class="cls-1" d="M111,36.2a1.7,1.7,0,1,1,1.7,1.7A1.7,1.7,0,0,1,111,36.2Zm.3,2.9H114V49.7h-2.7Z"/><path class="cls-1" d="M127.3,44.4a5.3,5.3,0,0,1-5.1,5.5,4.1,4.1,0,0,1-3.4-1.5v5.4H116V39.2h2.7v1.2a4.1,4.1,0,0,1,3.4-1.5A5.3,5.3,0,0,1,127.3,44.4Zm-2.7,0a2.9,2.9,0,1,0-2.9,3A2.8,2.8,0,0,0,124.6,44.4Z"/><path class="cls-1" d="M136.4,46.6c0,2.3-2,3.4-4.2,3.4a4.5,4.5,0,0,1-4.4-2.5l2.4-1.3a2,2,0,0,0,2.1,1.4c.9,0,1.4-.3,1.4-.9s-5.4-.7-5.4-4.4c0-2.1,1.8-3.3,4-3.3a4.4,4.4,0,0,1,4,2.2l-2.3,1.3a1.8,1.8,0,0,0-1.7-1.1c-.7,0-1.2.3-1.2.9S136.4,42.7,136.4,46.6Z"/></svg>